<svg preserveAspectRatio="none" width="100%" height="100%" overflow="visible" style="display: block;" viewBox="0 0 114 24" fill="none" xmlns="http://www.w3.org/2000/svg">
<g id="5 star">
<path id="Star 6" d="M11.5528 2.79863C11.8594 1.89275 13.1406 1.89275 13.4472 2.79862L15.0765 7.61239C15.2139 8.01849 15.595 8.2918 16.0237 8.2918H21.2065C22.185 8.2918 22.5812 9.55218 21.7785 10.112L17.6568 12.9869C17.2919 13.2413 17.139 13.7063 17.2816 14.1276L18.8724 18.8277C19.1818 19.7419 18.1447 20.5207 17.3531 19.9685L13.0721 16.9826C12.7284 16.7429 12.2716 16.7429 11.9279 16.9826L7.64689 19.9685C6.8553 20.5207 5.81819 19.7419 6.1276 18.8277L7.71838 14.1276C7.861 13.7063 7.70812 13.2413 7.34324 12.9869L3.22147 10.112C2.41884 9.55218 2.81497 8.2918 3.79355 8.2918H8.97631C9.40505 8.2918 9.78608 8.0185 9.92353 7.61239L11.5528 2.79863Z" fill="var(--fill-0, #A6A6A6)"/>
<path id="Star 7" d="M34.0567 2.67977C34.3702 1.78914 35.6298 1.78914 35.9433 2.67977L37.6836 7.62382C37.8244 8.02405 38.2025 8.2918 38.6268 8.2918H44.0773C45.0653 8.2918 45.4548 9.57202 44.6343 10.1223L40.3661 12.9848C39.9873 13.2389 39.8284 13.7171 39.9798 14.1473L41.6419 18.8693C41.9613 19.7767 40.9406 20.5677 40.1417 20.0319L35.557 16.9571C35.22 16.7312 34.78 16.7312 34.443 16.9571L29.8583 20.0319C29.0594 20.5677 28.0387 19.7767 28.3581 18.8693L30.0202 14.1473C30.1716 13.7171 30.0127 13.2389 29.6339 12.9848L25.3657 10.1223C24.5452 9.57201 24.9347 8.2918 25.9227 8.2918H31.3732C31.7975 8.2918 32.1756 8.02404 32.3164 7.62382L34.0567 2.67977Z" fill="var(--fill-0, #A6A6A6)"/>
<path id="Star 8" d="M56.0489 2.92705C56.3483 2.00574 57.6517 2.00574 57.9511 2.92705L59.4697 7.60081C59.6035 8.01284 59.9875 8.2918 60.4207 8.2918H65.335C66.3037 8.2918 66.7065 9.53141 65.9228 10.1008L61.947 12.9894C61.5966 13.244 61.4499 13.6954 61.5838 14.1074L63.1024 18.7812C63.4017 19.7025 62.3472 20.4686 61.5635 19.8992L57.5878 17.0106C57.2373 16.756 56.7627 16.756 56.4122 17.0106L52.4365 19.8992C51.6528 20.4686 50.5983 19.7025 50.8976 18.7812L52.4162 14.1074C52.5501 13.6954 52.4034 13.244 52.053 12.9894L48.0772 10.1008C47.2935 9.53141 47.6963 8.2918 48.665 8.2918H53.5793C54.0125 8.2918 54.3965 8.01284 54.5303 7.60081L56.0489 2.92705Z" fill="var(--fill-0, #A6A6A6)"/>
<path id="Star 9" d="M78.0567 2.67977C78.3702 1.78914 79.6298 1.78914 79.9433 2.67977L81.6836 7.62382C81.8244 8.02405 82.2025 8.2918 82.6268 8.2918H88.0773C89.0653 8.2918 89.4548 9.57202 88.6343 10.1223L84.3661 12.9848C83.9873 13.2389 83.8284 13.7171 83.9798 14.1473L85.6419 18.8693C85.9613 19.7767 84.9406 20.5677 84.1417 20.0319L79.557 16.9571C79.22 16.7312 78.78 16.7312 78.443 16.9571L73.8583 20.0319C73.0594 20.5677 72.0387 19.7767 72.3581 18.8693L74.0202 14.1473C74.1716 13.7171 74.0127 13.2389 73.6339 12.9848L69.3657 10.1223C68.5452 9.57201 68.9347 8.2918 69.9227 8.2918H75.3732C75.7975 8.2918 76.1756 8.02404 76.3164 7.62382L78.0567 2.67977Z" fill="var(--fill-0, #A6A6A6)"/>
<path id="Star 10" d="M100.553 2.79863C100.859 1.89275 102.141 1.89275 102.447 2.79862L104.076 7.61239C104.214 8.01849 104.595 8.2918 105.024 8.2918H110.206C111.185 8.2918 111.581 9.55218 110.779 10.112L106.657 12.9869C106.292 13.2413 106.139 13.7063 106.282 14.1276L107.872 18.8277C108.182 19.7419 107.145 20.5207 106.353 19.9685L102.072 16.9826C101.728 16.7429 101.272 16.7429 100.928 16.9826L96.6469 19.9685C95.8553 20.5207 94.8182 19.7419 95.1276 18.8277L96.7184 14.1276C96.861 13.7063 96.7081 13.2413 96.3432 12.9869L92.2215 10.112C91.4188 9.55218 91.815 8.2918 92.7935 8.2918H97.9763C98.405 8.2918 98.7861 8.0185 98.9235 7.61239L100.553 2.79863Z" fill="var(--fill-0, #A6A6A6)"/>
</g>
</svg>
