<svg preserveAspectRatio="none" width="100%" height="100%" overflow="visible" style="display: block;" viewBox="0 0 4 6.49541" fill="none" xmlns="http://www.w3.org/2000/svg">
<path id="Vector" d="M1.76589 6.4871C1.82108 6.49541 1.88318 6.49541 1.95218 6.49541C2.49034 6.49541 3.1872 6.27106 3.62187 5.61462C3.89096 5.20747 4.16004 4.50118 3.88406 3.42927C3.80126 3.08859 3.73917 2.73129 3.68397 2.39892C3.51148 1.37687 3.29759 0.105542 2.29026 0.00583053C1.06213 -0.127119 0.123788 2.04161 0.0133947 3.64531C-0.124597 5.59801 0.827545 6.3957 1.76589 6.4871ZM1.38641 3.79488C1.45541 2.83931 1.89698 1.93359 2.11777 1.71755C2.20056 1.9419 2.27646 2.41554 2.33165 2.7396C2.39375 3.10521 2.46275 3.52067 2.56624 3.91952C2.64213 4.21866 2.63524 4.44301 2.54554 4.57596C2.41445 4.76707 2.09707 4.85848 1.88318 4.83355C1.66239 4.80862 1.31742 4.77538 1.38641 3.79488Z" fill="var(--fill-0, #9ED6E7)"/>
</svg>
