<svg preserveAspectRatio="none" width="100%" height="100%" overflow="visible" style="display: block;" viewBox="0 0 22 22" fill="none" xmlns="http://www.w3.org/2000/svg">
<g id="icon / bootstrap / outline &#38; logos / tiktok">
<rect width="22" height="22" rx="5" fill="var(--fill-0, #E5F6FD)"/>
<path id="Vector" d="M13.2857 1H15.8314C16.0166 1.89375 16.5257 3.02125 17.4193 4.14C18.2936 5.23625 19.4533 6 21 6V8.5C18.7461 8.5 17.0529 7.4825 15.8571 6.21375V14.75C15.8571 15.9861 15.4801 17.1945 14.7737 18.2223C14.0674 19.2501 13.0633 20.0512 11.8887 20.5242C10.714 20.9973 9.42144 21.1211 8.17442 20.8799C6.9274 20.6387 5.78194 20.0435 4.88289 19.1694C3.98384 18.2953 3.37157 17.1817 3.12353 15.9693C2.87548 14.7569 3.00279 13.5003 3.48935 12.3582C3.97591 11.2162 4.79988 10.2401 5.85705 9.55331C6.91422 8.86656 8.15712 8.5 9.42857 8.5V11C8.6657 11 7.91996 11.2199 7.28566 11.632C6.65136 12.044 6.15698 12.6297 5.86504 13.3149C5.5731 14.0002 5.49672 14.7542 5.64554 15.4816C5.79437 16.209 6.16173 16.8772 6.70116 17.4016C7.24059 17.9261 7.92787 18.2832 8.67608 18.4279C9.4243 18.5726 10.1998 18.4984 10.9046 18.2145C11.6094 17.9307 12.2118 17.4501 12.6357 16.8334C13.0595 16.2167 13.2857 15.4917 13.2857 14.75V1Z" fill="var(--fill-0, #475569)"/>
</g>
</svg>
